<?xml version="1.0" encoding="utf-8"?>
<!-- Generator: Adobe Illustrator 19.0.1, SVG Export Plug-In . SVG Version: 6.00 Build 0)  -->
<svg version="1.1" id="Слой_3" xmlns="http://www.w3.org/2000/svg" xmlns:xlink="http://www.w3.org/1999/xlink" x="0px" y="0px"
	 viewBox="-468 469.5 42.5 42.5" style="enable-background:new -468 469.5 42.5 42.5;" xml:space="preserve">
<style type="text/css">
	.st0{fill:#3D6CB0;}
</style>
<g>
	<path class="st0" d="M-446.8,469.5c-11.7,0-21.3,9.5-21.3,21.3s9.5,21.3,21.3,21.3s21.3-9.5,21.3-21.3S-435,469.5-446.8,469.5z
		 M-446.8,511c-11.2,0-20.3-9.1-20.3-20.3s9.1-20.3,20.3-20.3s20.3,9.1,20.3,20.3S-435.6,511-446.8,511z"/>
	<path class="st0" d="M-446.8,471.3c-10.8,0-19.5,8.7-19.5,19.5s8.7,19.5,19.5,19.5s19.5-8.7,19.5-19.5S-436,471.3-446.8,471.3z
		 M-436.5,505.4l-10.3-7.4l-10.3,7.1l3.9-11.6l-10-7.1h12.4l4-11.6l3.9,11.6h12.7l-10.3,7.1L-436.5,505.4z"/>
</g>
</svg>
