<?xml version="1.0" encoding="utf-8"?>
<!-- Generator: Adobe Illustrator 19.0.1, SVG Export Plug-In . SVG Version: 6.00 Build 0)  -->
<svg version="1.1" id="Слой_2" xmlns="http://www.w3.org/2000/svg" xmlns:xlink="http://www.w3.org/1999/xlink" x="0px" y="0px"
	 viewBox="-468 469.5 42.5 42.5" style="enable-background:new -468 469.5 42.5 42.5;" xml:space="preserve">
<style type="text/css">
	.st0{fill:#3D6CB0;}
</style>
<g>
	<path class="st0" d="M-446.8,469.5c-11.7,0-21.3,9.5-21.3,21.3s9.5,21.3,21.3,21.3s21.3-9.5,21.3-21.3S-435,469.5-446.8,469.5z
		 M-446.8,511c-11.2,0-20.3-9.1-20.3-20.3s9.1-20.3,20.3-20.3s20.3,9.1,20.3,20.3S-435.6,511-446.8,511z"/>
	<path class="st0" d="M-446.8,471.3c-10.8,0-19.5,8.7-19.5,19.5s8.7,19.5,19.5,19.5s19.5-8.7,19.5-19.5S-436,471.3-446.8,471.3z
		 M-444.2,504.9c-0.1,0-0.4,0-0.6,0c-1.7,0-3.2,0-4.9,0c-3.1,0-3.1-4,0-4c1.7,0,3.2,0,4.9,0c0.1,0,0.4,0,0.6,0
		C-441.1,500.8-441.1,504.9-444.2,504.9z M-441.7,495.3c-0.4,2.2-1.7,4-3.1,4c-1.4,0-2.8,0-4.2,0c-1.4,0-2.5-1.7-2.9-4
		c-3.1-1.7-5-4.9-5-8.6c0-5.6,4.5-10,10-10s10,4.6,10.2,10C-436.7,490.3-438.7,493.5-441.7,495.3z"/>
</g>
</svg>
