<?xml version="1.0" encoding="utf-8"?>
<!-- Generator: Adobe Illustrator 19.0.1, SVG Export Plug-In . SVG Version: 6.00 Build 0)  -->
<svg version="1.1" id="Слой_3" xmlns="http://www.w3.org/2000/svg" xmlns:xlink="http://www.w3.org/1999/xlink" x="0px" y="0px"
	 viewBox="0 0 42.5 42.5" style="enable-background:new 0 0 42.5 42.5;" xml:space="preserve">
<style type="text/css">
	.st0{fill:#D86A43;}
</style>
<g>
	<path class="st0" d="M14.9,25.6h12.7c1.2,0,2.2-1,2.2-2.2v-6.7c0-1.2-1-2.2-2.2-2.2H14.9c-1.2,0-2.2,1-2.2,2.2v6.7
		C12.7,24.6,13.7,25.6,14.9,25.6z M13.8,16.8c0-0.6,0.5-1.2,1.2-1.2h12.5c0.7,0,1.2,0.5,1.2,1.2v6.5c0,0.6-0.5,1.2-1.2,1.2H15
		c-0.7,0-1.2-0.5-1.2-1.2V16.8z"/>
	<polygon class="st0" points="29.9,27.3 12.6,27.3 10.8,30.3 31.6,30.3 	"/>
</g>
</svg>
