<?xml version="1.0" encoding="utf-8"?>
<!-- Generator: Adobe Illustrator 19.0.1, SVG Export Plug-In . SVG Version: 6.00 Build 0)  -->
<svg version="1.1" id="Слой_2" xmlns="http://www.w3.org/2000/svg" xmlns:xlink="http://www.w3.org/1999/xlink" x="0px" y="0px"
	 viewBox="0 0 42.5 42.5" style="enable-background:new 0 0 42.5 42.5;" xml:space="preserve">
<style type="text/css">
	.st0{fill:#DE835A;}
</style>
<path class="st0" d="M15.6,10.1c0.7-0.7,1.1,0,1.2,0.3c0.4,0.8,1.8,2.9,2.2,3.9c0.2,0.4,0.1,0.8,0,1.1c-0.3,0.8-1.2,0.7-1.3,1.2
	c-0.3,1.7,4.1,5.6,5.9,6.3c0.6,0.2,1.2-1,1.5-1.3c0.3-0.2,1-0.3,1.3-0.1c0.3,0.2,2.2,1.3,4.1,2.4c0.5,0.3,0.2,1,0.1,1
	c-1.4,1.4-2.9,3.1-3.5,3.2c-3.2,0.6-7.3-2.3-9.8-4.9c-1.1-1.2-4.1-3.9-5-8.4c-0.1-0.5-0.1-1.6,0.8-2.5
	C13.8,11.7,14.8,10.8,15.6,10.1z"/>
</svg>
