<?xml version="1.0" encoding="utf-8"?>
<!-- Generator: Adobe Illustrator 19.0.1, SVG Export Plug-In . SVG Version: 6.00 Build 0)  -->
<svg version="1.1" id="Слой_3" xmlns="http://www.w3.org/2000/svg" xmlns:xlink="http://www.w3.org/1999/xlink" x="0px" y="0px"
	 viewBox="-468 469.5 42.5 42.5" style="enable-background:new -468 469.5 42.5 42.5;" xml:space="preserve">
<style type="text/css">
	.st0{fill:#3D6CB0;}
</style>
<g>
	<path class="st0" d="M-446.8,469.5c-11.7,0-21.3,9.5-21.3,21.3s9.5,21.3,21.3,21.3s21.3-9.5,21.3-21.3S-435,469.5-446.8,469.5z
		 M-446.8,511c-11.2,0-20.3-9.1-20.3-20.3s9.1-20.3,20.3-20.3s20.3,9.1,20.3,20.3S-435.6,511-446.8,511z"/>
	<path class="st0" d="M-446.8,471.3c-10.8,0-19.5,8.7-19.5,19.5s8.7,19.5,19.5,19.5s19.5-8.7,19.5-19.5S-436,471.3-446.8,471.3z
		 M-433.3,499.5c-2.1,2.1-4.3,4.6-5.2,4.7c-4.7,0.9-10.8-3.4-14.5-7.3c-1.6-1.8-6.1-5.8-7.4-12.4c-0.1-0.7-0.1-2.4,1.2-3.7
		c1-0.9,2.5-2.2,3.7-3.3c1-1,1.6,0,1.8,0.4c0.6,1.2,2.7,4.3,3.3,5.8c0.3,0.6,0.1,1.2,0,1.6c-0.4,1.2-1.8,1-1.9,1.8
		c-0.4,2.5,6.1,8.3,8.7,9.3c0.9,0.3,1.8-1.5,2.2-1.9c0.4-0.3,1.5-0.4,1.9-0.1c0.4,0.3,3.3,1.9,6.1,3.6
		C-432.7,498.5-433.2,499.5-433.3,499.5z"/>
</g>
</svg>
