<?xml version="1.0" encoding="utf-8"?>
<!-- Generator: Adobe Illustrator 19.0.1, SVG Export Plug-In . SVG Version: 6.00 Build 0)  -->
<svg version="1.1" id="Слой_2" xmlns="http://www.w3.org/2000/svg" xmlns:xlink="http://www.w3.org/1999/xlink" x="0px" y="0px"
	 viewBox="-468 469.5 42.5 42.5" style="enable-background:new -468 469.5 42.5 42.5;" xml:space="preserve">
<style type="text/css">
	.st0{fill:#3D6CB0;}
</style>
<g>
	<path class="st0" d="M-446.8,469.5c-11.7,0-21.3,9.5-21.3,21.3s9.5,21.3,21.3,21.3s21.3-9.5,21.3-21.3S-435,469.5-446.8,469.5z
		 M-446.8,511c-11.2,0-20.3-9.1-20.3-20.3s9.1-20.3,20.3-20.3s20.3,9.1,20.3,20.3S-435.6,511-446.8,511z"/>
	<path class="st0" d="M-446.8,471.3c-10.8,0-19.5,8.7-19.5,19.5s8.7,19.5,19.5,19.5s19.5-8.7,19.5-19.5S-436,471.3-446.8,471.3z
		 M-458.6,502.3c0.3-4.9,3.5-9,8.1-10.5c-1.7-1.2-2.8-3.2-2.8-5.3c0-3.7,2.9-6.6,6.6-6.6c3.7,0,6.6,2.9,6.6,6.6
		c0,2.3-1.2,4.3-2.9,5.5c4.4,1.5,7.6,5.7,8.1,10.4H-458.6z"/>
</g>
</svg>
