<?xml version="1.0" encoding="utf-8"?>
<!-- Generator: Adobe Illustrator 19.0.1, SVG Export Plug-In . SVG Version: 6.00 Build 0)  -->
<svg version="1.1" id="Слой_2" xmlns="http://www.w3.org/2000/svg" xmlns:xlink="http://www.w3.org/1999/xlink" x="0px" y="0px"
	 viewBox="0 0 42.5 42.5" style="enable-background:new 0 0 42.5 42.5;" xml:space="preserve">
<style type="text/css">
	.st0{fill:#D86A43;}
</style>
<g>
	<path class="st0" d="M24,28.4c-0.1,0-0.3,0-0.4,0c-1.2,0-2.3,0-3.5,0c-2.2,0-2.2,2.9,0,2.9c1.2,0,2.3,0,3.5,0c0.1,0,0.3,0,0.4,0
		C26.2,31.3,26.2,28.4,24,28.4z"/>
	<path class="st0" d="M22.1,11c-4,0-7.2,3.2-7.2,7.2c0,2.7,1.4,5,3.6,6.2c0.3,1.7,1.1,2.9,2.1,2.9c1,0,2,0,3,0c1,0,1.9-1.3,2.2-2.9
		c2.1-1.3,3.6-3.6,3.6-6.2C29.3,14.3,26.1,11,22.1,11z"/>
</g>
</svg>
